<?xml version="1.0" encoding="UTF-8"?>
<svg id="Calque_2" data-name="Calque 2" xmlns="http://www.w3.org/2000/svg" viewBox="0 0 222.11 36">
  <defs>
    <style>
      .cls-1 {
        fill: #212426;
      }
    </style>
  </defs>
  <g id="Calque_1-2" data-name="Calque 1">
    <g>
      <polygon class="cls-1" points="158.96 36 174 18 173.96 .05 222 0 222.11 18 158.96 36"/>
      <g>
        <g>
          <g>
            <path class="cls-1" d="M16.02,12.15c0,3.34-2.77,5.28-6.57,5.28s-6.59-1.77-7.16-5.47h4.04c.31,1.6,1.43,2.48,3.15,2.48s2.63-.69,2.63-1.82c0-3.63-9.58-.86-9.58-7.28C2.53,2.62,4.8.43,8.79.43c3.37,0,6.28,1.6,6.78,5.35h-4.08c-.33-1.6-1.27-2.36-2.84-2.36-1.34,0-2.17.62-2.17,1.58,0,3.46,9.55.53,9.55,7.16Z"/>
            <path class="cls-1" d="M18.12.81h3.82v6.38h6.4V.81h3.82v16.24h-3.82v-6.76h-6.4v6.76h-3.82V.81Z"/>
            <path class="cls-1" d="M34.54,8.95c0-5.25,3.1-8.53,8.14-8.53s8.12,3.27,8.12,8.53-3.1,8.48-8.12,8.48-8.14-3.25-8.14-8.48ZM46.89,8.95c0-3.34-1.55-5.4-4.2-5.4s-4.23,2.03-4.23,5.4,1.55,5.35,4.23,5.35,4.2-2.01,4.2-5.35Z"/>
            <path class="cls-1" d="M53.19.81h6.64c3.8,0,6.14,1.91,6.14,4.92,0,1.79-.74,3.03-2.03,3.8.74.55,1.19,1.36,1.48,2.56l1.22,4.97h-3.99l-.91-4.25c-.31-1.46-.81-1.77-2.2-1.77h-2.53v6.02h-3.82V.81ZM57.01,3.84v4.23h2.65c1.6,0,2.37-.86,2.37-2.13s-.79-2.1-2.27-2.1h-2.75Z"/>
            <path class="cls-1" d="M72.44,3.94h-5.04V.81h13.92v3.13h-5.04v13.11h-3.84V3.94Z"/>
          </g>
          <g>
            <path class="cls-1" d="M11.3,32.59h-6.38l-1.08,3.03H0l5.92-16.24h4.59l5.95,16.24h-4.08l-1.07-3.03ZM5.97,29.65h4.27l-1.65-4.68-.48-1.84-.5,1.84-1.65,4.68Z"/>
            <path class="cls-1" d="M18.07,19.38h6.59c3.68,0,5.95,1.79,5.95,4.61,0,1.36-.67,2.44-1.79,3.06,1.74.62,2.7,1.96,2.7,3.77,0,3.06-2.17,4.8-6.04,4.8h-7.4v-16.24ZM21.89,22.41v3.56h2.6c1.46,0,2.17-.74,2.17-1.74,0-1.12-.74-1.82-2.1-1.82h-2.67ZM21.89,28.74v3.85h3.49c1.43,0,2.22-.76,2.22-1.93s-.81-1.91-2.34-1.91h-3.37Z"/>
            <path class="cls-1" d="M33.14,27.52c0-5.25,3.1-8.53,8.14-8.53s8.12,3.27,8.12,8.53-3.1,8.48-8.12,8.48-8.14-3.25-8.14-8.48ZM45.48,27.52c0-3.34-1.55-5.4-4.2-5.4s-4.23,2.03-4.23,5.4,1.55,5.35,4.23,5.35,4.2-2.01,4.2-5.35Z"/>
            <path class="cls-1" d="M58.59,36c-4.32,0-6.95-2.51-6.95-6.57v-10.05h3.85v10.05c0,2.17,1.15,3.49,3.1,3.49s3.1-1.31,3.1-3.49v-10.05h3.82v10.05c0,4.06-2.65,6.57-6.93,6.57Z"/>
            <path class="cls-1" d="M72.44,22.51h-5.04v-3.13h13.92v3.13h-5.04v13.11h-3.84v-13.11Z"/>
          </g>
        </g>
        <g>
          <g>
            <path class="cls-1" d="M86.09.81h4.04l5.13,8.53,1.24,2.58-.19-11.11h3.82v16.24h-4.04l-5.13-8.53-1.24-2.6.19,11.13h-3.82V.81Z"/>
            <path class="cls-1" d="M103.04.81h11.65v3.03h-7.83v3.41h6.9v2.96h-6.9v3.8h7.83v3.03h-11.65V.81Z"/>
            <path class="cls-1" d="M128.62,7.71l-.38-1.72-.41,1.72-2.63,9.34h-4.3L116.1.81h4.08l2.6,10.65.43,1.93.43-1.93,3.01-10.65h3.34l2.99,10.65.43,1.93.43-1.93,2.6-10.65h3.87l-4.8,16.24h-4.25l-2.65-9.34Z"/>
            <path class="cls-1" d="M155.19,12.15c0,3.34-2.77,5.28-6.57,5.28s-6.59-1.77-7.16-5.47h4.04c.31,1.6,1.43,2.48,3.15,2.48s2.63-.69,2.63-1.82c0-3.63-9.58-.86-9.58-7.28,0-2.72,2.27-4.92,6.26-4.92,3.37,0,6.28,1.6,6.78,5.35h-4.08c-.33-1.6-1.27-2.36-2.84-2.36-1.34,0-2.17.62-2.17,1.58,0,3.46,9.55.53,9.55,7.16Z"/>
          </g>
          <g>
            <path class="cls-1" d="M86.09,19.38h11.65v3.03h-7.83v3.96h6.9v3.03h-6.9v6.21h-3.82v-16.24Z"/>
            <path class="cls-1" d="M99.96,19.38h3.82v16.24h-3.82v-16.24Z"/>
            <path class="cls-1" d="M106.7,19.38h3.82v13.13h7.14v3.1h-10.96v-16.24Z"/>
            <path class="cls-1" d="M119.71,19.38h5.04l3.53,9.6.69,2.41.69-2.41,3.53-9.6h4.9v16.24h-3.82l.21-11.96-1.24,4.04-2.96,7.93h-2.77l-2.99-7.98-1.22-3.96.22,11.94h-3.82v-16.24Z"/>
            <path class="cls-1" d="M153.92,30.72c0,3.34-2.77,5.28-6.57,5.28s-6.59-1.77-7.16-5.47h4.04c.31,1.6,1.43,2.48,3.15,2.48s2.63-.69,2.63-1.82c0-3.63-9.58-.86-9.58-7.28,0-2.72,2.27-4.92,6.26-4.92,3.37,0,6.28,1.6,6.78,5.35h-4.08c-.33-1.6-1.27-2.36-2.84-2.36-1.34,0-2.17.62-2.17,1.58,0,3.46,9.55.53,9.55,7.16Z"/>
          </g>
        </g>
      </g>
    </g>
  </g>
</svg>